<svg xmlns="http://www.w3.org/2000/svg" viewBox="0 0 406.67 183.93"><defs><style>.cls-1{fill:#333;}.cls-2{fill:#83807e;}.cls-3{fill:#fff;}.cls-4{fill:#726e6c;}.cls-5{fill:#3b3735;}.cls-6{fill:#99c21c;}.cls-7{fill:#fbd919;}</style></defs><g id="Layer_2" data-name="Layer 2"><g id="Layer_1-2" data-name="Layer 1"><path class="cls-1" d="M277.52,119.49S286.61,96,311,86.51A163.84,163.84,0,0,1,356.66,76s-11.73,4.51-13.75,8.14c0,0-5.14,9.39-3,11.58A6.59,6.59,0,0,0,345,97.53l-18.26,51.4s2,6.51,6.75,7.47,13.85-2.32,13.85-2.32l15.52-43.69s-1.11-9.08-3.45-10.63l8.95,5.35h0s14.35-5.76,18-5.9,18.57-1.36,20.27,0c0,0-20.53,13-21,14.25L368.1,162.9s2.72,4.58,7.26,4,17.56-4.61,18.88-6.31c0,0-22.85,21.55-42.29,23.32l-7.5-13.52-16.77,8.51s-28.42-13.71-32.16-31.68c0,0,7.67,4.89,9.72-.89S319,105.64,319,105.64s.32-5-5.28-5.49S277.52,119.49,277.52,119.49Z"/><path class="cls-2" d="M185.7,183.76H55.55A65.48,65.48,0,0,1,61,154.21L38.23,131.49A65.46,65.46,0,0,1,.1,135.87c-.07-1-.1-2.05-.1-3.09V7.77l1.5-.26c.47-.08,1-.16,1.44-.22,1.55-.22,3.11-.38,4.67-.49L9,6.72A65.52,65.52,0,0,1,26.4,8.24q2.88.64,5.72,1.56c1,.32,2,.67,3,1a64.74,64.74,0,0,1,16.8,9.4c.87.67,1.72,1.37,2.56,2.09q1.89,1.62,3.68,3.41l.28-.29,12,12L108,75l9.47,9.47,35.62,35.62L167,134l-.29.28A65,65,0,0,1,185.7,183.76Z"/><path class="cls-3" d="M70.38,37.4h0l-.29.28a64.85,64.85,0,0,0-29.64-17h0A65.46,65.46,0,0,0,0,23.17V7.77l1.5-.26c.47-.08,1-.16,1.44-.22,1.55-.22,3.11-.38,4.67-.49L9,6.72A65.52,65.52,0,0,1,26.4,8.24q2.88.64,5.72,1.56c1,.32,2,.67,3,1a64.74,64.74,0,0,1,16.8,9.4c.87.67,1.72,1.37,2.56,2.09q1.89,1.62,3.68,3.41l.28-.29Z"/><path class="cls-3" d="M55.55,183.76A65.48,65.48,0,0,1,61,154.21l5.13,5.13,6.82,6.83A65,65,0,0,0,68,183.76Z"/><path class="cls-4" d="M185.7,183.76H131.79c.91-.75,1.78-1.52,2.62-2.3q2.26-2.09,4.22-4.25a63.58,63.58,0,0,0,4.34-5.35,58.56,58.56,0,0,0,4.43-7.11,57.55,57.55,0,0,0,2.87-6.29,59.56,59.56,0,0,0,1.89-5.71,68.23,68.23,0,0,0,2.24-21.81,79.15,79.15,0,0,0-1.34-10.85L167,134l-.29.28A65,65,0,0,1,185.7,183.76Z"/><path class="cls-5" d="M68.09,109,58.15,99a6.7,6.7,0,0,1,9.47-9.47l9.94,9.94A6.7,6.7,0,0,1,68.09,109Z"/><path class="cls-5" d="M92.71,133.58l-9.94-9.94a6.69,6.69,0,1,1,9.46-9.46l9.94,9.94a6.69,6.69,0,1,1-9.46,9.46Z"/><path class="cls-5" d="M29.39,60.8,19.14,71.06,9.67,80.53,0,90.19V71.25l.2-.19,9.47-9.47L19.92,51.33a6.7,6.7,0,0,1,9.47,9.47Z"/><path class="cls-5" d="M29.39,90.78a6.71,6.71,0,0,1-9.47,0L0,70.86V51.92L29.39,81.31A6.71,6.71,0,0,1,29.39,90.78Z"/><circle class="cls-6" cx="102.9" cy="165.77" r="11.72" transform="translate(-87.08 121.32) rotate(-45)"/><circle class="cls-7" cx="141.13" cy="165.77" r="11.72" transform="translate(-75.88 148.35) rotate(-45)"/><path class="cls-5" d="M115,153.7a17.07,17.07,0,1,0,0,24.14A17.08,17.08,0,0,0,115,153.7Zm-7.57,16.57a6.36,6.36,0,1,1,0-9A6.36,6.36,0,0,1,107.4,170.27Z"/><path class="cls-5" d="M153.2,153.7a13.13,13.13,0,0,0-1-.95,17.07,17.07,0,0,0-23.1,25.09,16.78,16.78,0,0,0,5.35,3.62A17.07,17.07,0,0,0,153.2,153.7Zm-7.57,16.57a6.26,6.26,0,0,1-2.66,1.59,6.36,6.36,0,1,1,2.66-10.59,6.39,6.39,0,0,1,0,9Z"/><path class="cls-5" d="M107.83,84.61a6.68,6.68,0,0,1,0-9.46l7.56-7.56a25.23,25.23,0,0,1,35.66,0L212,128.49a11.83,11.83,0,0,0,16.73-16.72L141.27,24.35a32.18,32.18,0,0,0-45.45,0,6.7,6.7,0,0,1-9.47-9.47,45.59,45.59,0,0,1,64.39,0l87.41,87.42A25.22,25.22,0,1,1,202.49,138L141.58,77.05a11.84,11.84,0,0,0-16.72,0l-7.56,7.56A6.69,6.69,0,0,1,107.83,84.61Z"/><path class="cls-5" d="M39.73,123.52l-4.19,1.84A58.37,58.37,0,0,1,0,129.1v3.68c0,1,0,2.07.1,3.09a50.73,50.73,0,0,0,.9,7,71.64,71.64,0,0,0,35.62-3.56l16.47,16.47a71.78,71.78,0,0,0-4.32,27.89c.73,0,1.47,0,2.21,0H62.2a58.13,58.13,0,0,1,3.88-24.42c.31-.82.65-1.63,1-2.44l1.84-4.19Zm132,5.76L122,79.87l-9.49-9.45L62.87,21A71.8,71.8,0,0,0,0,1V14.63a58.73,58.73,0,0,1,40.44,6.06h0a58.34,58.34,0,0,1,13,9.78l54.42,54.13,46.57,46.33,7.87,7.82a58.17,58.17,0,0,1,16.88,45h13.4A71.49,71.49,0,0,0,171.72,129.28Z"/></g></g></svg>