<svg xmlns="http://www.w3.org/2000/svg" viewBox="0 0 382.11 174.97"><defs><style>.cls-1{fill:#333;}.cls-2{fill:#00afe0;}.cls-3{fill:#fff;}.cls-4{fill:#ffc892;}.cls-5{fill:none;}</style></defs><g id="Layer_2" data-name="Layer 2"><g id="Layer_1-2" data-name="Layer 1"><path class="cls-1" d="M369.66,165.34,198.19,145.72a7.11,7.11,0,0,1-6.25-7.87l4.52-39.57A7.13,7.13,0,0,1,204.34,92L375.8,111.64a7.12,7.12,0,0,1,6.26,7.87l-4.53,39.57A7.11,7.11,0,0,1,369.66,165.34ZM204,94.85a4.27,4.27,0,0,0-4.72,3.75l-4.53,39.57a4.29,4.29,0,0,0,3.76,4.73L370,162.51a4.27,4.27,0,0,0,4.73-3.75l4.52-39.57a4.26,4.26,0,0,0-3.75-4.72Z"/><path class="cls-1" d="M207.83,127.14a7.47,7.47,0,1,1,8.27-6.57A7.49,7.49,0,0,1,207.83,127.14Zm1.38-12a4.62,4.62,0,1,0,4.07,5.12A4.63,4.63,0,0,0,209.21,115.13Z"/><path class="cls-1" d="M226.52,120.09a1.42,1.42,0,0,1-1.25-1.57L227,103.68a1.42,1.42,0,0,1,2.83.32l-1.7,14.84A1.42,1.42,0,0,1,226.52,120.09Z"/><path class="cls-1" d="M244,122.09a1.42,1.42,0,0,1-1.26-1.57l1.7-14.84a1.42,1.42,0,0,1,2.83.32l-1.7,14.84A1.42,1.42,0,0,1,244,122.09Z"/><path class="cls-1" d="M261.45,124.09a1.42,1.42,0,0,1-1.25-1.58l1.7-14.83a1.42,1.42,0,1,1,2.83.32L263,122.84A1.42,1.42,0,0,1,261.45,124.09Z"/><path class="cls-1" d="M278.92,126.09a1.43,1.43,0,0,1-1.25-1.58l1.7-14.84a1.42,1.42,0,0,1,2.83.33l-1.7,14.84A1.43,1.43,0,0,1,278.92,126.09Z"/><path class="cls-1" d="M296.39,128.09a1.43,1.43,0,0,1-1.25-1.58l1.7-14.84a1.42,1.42,0,0,1,1.57-1.25,1.44,1.44,0,0,1,1.26,1.58L298,126.83A1.43,1.43,0,0,1,296.39,128.09Z"/><path class="cls-1" d="M313.86,130.08a1.41,1.41,0,0,1-1.25-1.57l1.7-14.84a1.42,1.42,0,1,1,2.82.32l-1.69,14.84A1.43,1.43,0,0,1,313.86,130.08Z"/><path class="cls-1" d="M331.33,132.08a1.42,1.42,0,0,1-1.25-1.57l1.7-14.84a1.42,1.42,0,1,1,2.82.32l-1.69,14.84A1.43,1.43,0,0,1,331.33,132.08Z"/><path class="cls-1" d="M348.8,134.08a1.42,1.42,0,0,1-1.25-1.57l1.7-14.84a1.42,1.42,0,1,1,2.82.32l-1.7,14.84A1.41,1.41,0,0,1,348.8,134.08Z"/><path class="cls-1" d="M366.27,136.08a1.42,1.42,0,0,1-1.25-1.57l1.69-14.84a1.43,1.43,0,0,1,1.58-1.25,1.41,1.41,0,0,1,1.25,1.57l-1.7,14.84A1.42,1.42,0,0,1,366.27,136.08Z"/><path d="M95.07,85.1a49.46,49.46,0,0,1-3.78-69.77,1.67,1.67,0,0,1,2.48,2.23A46.07,46.07,0,0,0,162.35,79.1a1.66,1.66,0,0,1,2.48,2.22A49.45,49.45,0,0,1,95.07,85.1Z"/><rect class="cls-2" x="161.31" y="68.26" width="13.71" height="13.71" transform="translate(-0.05 150.11) rotate(-48.1)"/><path d="M179,73.35l-10.2-9.16a1.67,1.67,0,0,0-2.35.13l-9.16,10.2a1.67,1.67,0,0,0,.13,2.36l3.84,3.44,2.48,2.23L167.58,86a1.66,1.66,0,0,0,2.35-.13l9.16-10.2A1.67,1.67,0,0,0,179,73.35ZM164.72,79l-.05,0h0l-3.82-3.43,6.93-7.73,7.73,6.93-6.94,7.73Z"/><rect class="cls-2" x="124.54" y="152.47" width="13.71" height="13.71" transform="translate(-74.94 150.7) rotate(-48.1)"/><path d="M142.18,157.56,132,148.4a1.66,1.66,0,0,0-2.35.13l-3.47,3.86-2.22,2.48-3.47,3.86a1.67,1.67,0,0,0,.13,2.35l10.2,9.16a1.67,1.67,0,0,0,2.36-.13l9.15-10.2A1.65,1.65,0,0,0,142.18,157.56Zm-18.12,2.16,3.45-3.84,0,0,0,0L131,152l7.72,6.93-6.93,7.73Z"/><rect class="cls-2" x="10.5" y="50.13" width="13.71" height="13.71" transform="translate(-36.65 31.85) rotate(-48.1)"/><path d="M28.15,55.22,18,46.07a1.66,1.66,0,0,0-2.35.13L6.44,56.4a1.65,1.65,0,0,0,.13,2.35l10.2,9.16a1.67,1.67,0,0,0,2.35-.13l3.46-3.86,2.23-2.48,3.47-3.86A1.68,1.68,0,0,0,28.15,55.22Zm-6.93,5.23-3.47,3.87L10,57.39,17,49.66l7.72,6.93Z"/><rect class="cls-2" x="90.26" y="4.49" width="13.71" height="13.71" transform="translate(23.81 76.04) rotate(-48.1)"/><path d="M107.9,9.58,97.7.43a1.66,1.66,0,0,0-2.35.12L86.19,10.76a1.66,1.66,0,0,0,.13,2.35l3.88,3.48,2.48,2.23,3.84,3.44a1.66,1.66,0,0,0,2.35-.12L108,11.93A1.66,1.66,0,0,0,107.9,9.58ZM93.64,15.21l-3.86-3.47L96.71,4,104.44,11l-6.93,7.72Z"/><path d="M125.18,156,21.34,62.81a1.67,1.67,0,0,1,2.23-2.48L127.4,153.5a1.66,1.66,0,1,1-2.22,2.48Z"/><path class="cls-3" d="M96.17,83.87c0,.08-.26.65-.64,1.63-.28.71-.65,1.64-1.08,2.78h0c-2.06,5.42-5.67,15.39-9.2,27.38h0c-.35,1.17-.69,2.35-1,3.55-4.93,17.4-9.4,38.32-8.87,55.74h-34A51.21,51.21,0,0,1,2.6,157.32c-.44-.51-.88-1-1.31-1.57,4.49-17.55,1.2-41.11,1.2-41.11,18.43-.21,41.3-7.59,59.82-15.07l3.42-1.41C77.27,93.35,86.8,88.68,92,86.05h0l2.64-1.36Z"/><path d="M97.22,82.7a1.62,1.62,0,0,0-1.83-.3l-.27.15h0c-.32.18-.92.48-1.76.92C89,85.73,78,91.25,64.33,96.91l-3.43,1.4C42.63,105.63,20.34,112.78,2.47,113a1.68,1.68,0,0,0-1.24.58,1.64,1.64,0,0,0-.39,1.32c0,.27,3,22.33-.84,39.2q.63.85,1.29,1.68c.43.53.87,1.06,1.31,1.57,4.24-15.15,2.48-34.92,1.77-41.06,18.7-.65,41.21-8,59.35-15.43l3.41-1.41c8.83-3.71,16.44-7.31,21.77-10h0l4.07-2h0c-.45,1.2-1,2.62-1.59,4.26h0c-2.05,5.59-4.82,13.54-7.55,22.73-.35,1.17-.69,2.35-1,3.55-5,17.62-9.67,39-9.12,57H77c-.52-16.91,3.79-37.32,8.61-54.48.33-1.21.67-2.39,1-3.56,4.14-14.21,8.44-25.7,10.22-30.29.35-.9.61-1.53.74-1.87h0c.06-.16.1-.25.11-.27A1.61,1.61,0,0,0,97.22,82.7Z"/><path class="cls-4" d="M54.63,146.2a10.71,10.71,0,1,1-.82-15.13A10.71,10.71,0,0,1,54.63,146.2Z"/><path d="M54.93,129.83a12.38,12.38,0,1,0,.94,17.49A12.39,12.39,0,0,0,54.93,129.83ZM40.61,145.78a9,9,0,1,1,12.78-.69A9.07,9.07,0,0,1,40.61,145.78Z"/><line class="cls-5" x1="106.74" y1="72.09" x2="67.44" y2="115.89"/><path d="M66.33,117.12a1.67,1.67,0,0,1-.13-2.35L105.5,71A1.67,1.67,0,1,1,108,73.21L68.68,117A1.66,1.66,0,0,1,66.33,117.12Z"/></g></g></svg>