<svg xmlns="http://www.w3.org/2000/svg" viewBox="0 0 492.07 232.32"><defs><style>.cls-1{fill:#999;}.cls-2{fill:#605d5d;}.cls-3{fill:#e5e5e5;}.cls-4{fill:#57bd90;}.cls-5{fill:#ff5930;}.cls-6{fill:#8ec9fa;}.cls-7{fill:#ff684a;}</style></defs><g id="Layer_2" data-name="Layer 2"><g id="Layer_1-2" data-name="Layer 1"><path class="cls-1" d="M464.53,142.25l-5.83-5.83-4.26,4.26a25.09,25.09,0,0,0-10.53-4.31v-6h-8.25v6a25,25,0,0,0-10.49,4.4l-4.23-4.24-5.84,5.84,4.26,4.26a25.07,25.07,0,0,0-4.3,10.53h-6v8.25h6a25,25,0,0,0,4.4,10.49l-4.23,4.23,5.83,5.84,4.26-4.26a25.07,25.07,0,0,0,10.53,4.3v6h8.25v-6a24.91,24.91,0,0,0,10.49-4.4l4.24,4.24,5.83-5.84-4.26-4.26a24.9,24.9,0,0,0,4.3-10.52h6V157h-6a25,25,0,0,0-4.4-10.48Zm-15,28.56a13.58,13.58,0,1,1,0-19.2A13.57,13.57,0,0,1,449.5,170.81Z"/><path class="cls-2" d="M276.91,232.32H51.3A51.3,51.3,0,0,1,0,181V44.59l20-20L44.59,0Z"/><polygon class="cls-3" points="276.91 232.32 227.8 232.32 20.04 24.56 20.03 24.55 44.59 0 276.91 232.32"/><path class="cls-4" d="M53.11,33.47a7.13,7.13,0,1,0-10.09,0A7.13,7.13,0,0,0,53.11,33.47Z"/><path class="cls-5" d="M76.13,56.5a7.13,7.13,0,1,0-10.08,0A7.12,7.12,0,0,0,76.13,56.5Z"/><path class="cls-6" d="M99.72,80.09a7.13,7.13,0,1,0-10.08,0A7.12,7.12,0,0,0,99.72,80.09Z"/><rect class="cls-5" x="29.79" y="119.17" width="70.37" height="5.91" transform="translate(105.39 -10.17) rotate(45)"/><polygon class="cls-5" points="33.76 203.1 29.58 207.28 0 177.7 0 169.34 33.76 203.1"/><rect class="cls-4" x="22.85" y="138.79" width="88.03" height="5.91" transform="translate(119.81 -5.77) rotate(45)"/><polygon class="cls-4" points="55.77 203.96 51.59 208.14 0 156.54 0 148.18 55.77 203.96"/><rect class="cls-6" x="62.04" y="207.38" width="5.91" height="19.96" transform="translate(-134.66 109.62) rotate(-45)"/><rect class="cls-6" x="10.72" y="153.17" width="98.93" height="5.91" transform="translate(128.03 3.17) rotate(45)"/><rect class="cls-4" x="2.96" y="158.68" width="88.03" height="5.91" transform="translate(128.05 14.13) rotate(45)"/><rect class="cls-5" x="-9.34" y="174.78" width="106.38" height="5.91" transform="translate(138.52 21.05) rotate(45)"/><rect class="cls-5" x="79.09" y="203.58" width="25.57" height="5.91" transform="translate(172.95 -4.47) rotate(45)"/><polygon class="cls-6" points="140.56 232.32 132.2 232.32 97.8 197.92 101.98 193.74 140.56 232.32"/><rect class="cls-4" x="95.78" y="186.84" width="38.27" height="5.91" transform="translate(167.87 -25.67) rotate(45)"/><path class="cls-4" d="M65.93,91.94,55.19,89.39l-1.47,1.47,2.54,10.76,2.12-2.12-1.87-7.32,7.3,1.89Z"/><path class="cls-4" d="M74.38,96.1l-18.93,8.65,2.41,2.42,18.93-8.65Z"/><path class="cls-4" d="M75.76,101.77l-2.12,2.12,1.92,7.33-7.35-1.89-2.12,2.12L76.85,114l1.47-1.47Z"/><polygon class="cls-5" points="47.5 70.59 0 118.09 0 110.94 43.92 67.02 47.5 70.59"/><circle class="cls-6" cx="23.78" cy="63.51" r="5.27"/><path class="cls-6" d="M11.53,83.22a5.28,5.28,0,1,0-7.46,0A5.29,5.29,0,0,0,11.53,83.22Z"/><path class="cls-7" d="M381.28,187.26a23.43,23.43,0,1,0,0,33.14A23.44,23.44,0,0,0,381.28,187.26Zm26.23,9.26a43.2,43.2,0,0,0-7.59-18.1l7.31-7.31L397.16,161l-7.36,7.35A43.23,43.23,0,0,0,371.64,161V150.63H357.4V161a43.2,43.2,0,0,0-18.1,7.59L332,161.31l-10.07,10.07,7.35,7.35a43.29,43.29,0,0,0-7.43,18.17H311.51v14.24h10.41a43.07,43.07,0,0,0,7.59,18.1l-3.08,3.08h77.12l-3.39-3.39a43.27,43.27,0,0,0,7.42-18.17h10.34V196.52Z"/><path class="cls-4" d="M466.62,223.73a16.28,16.28,0,0,0-27.53,8.59h32A16.15,16.15,0,0,0,466.62,223.73Zm18.22,6.43a30,30,0,0,0-5.27-12.57l5.07-5.08-7-7-5.11,5.11a30.09,30.09,0,0,0-12.62-5.16v-7.18H450v7.23a29.86,29.86,0,0,0-12.57,5.27l-5.08-5.08-7,7,5.11,5.11a30,30,0,0,0-5.16,12.62h-7.18v1.89h73.93v-2.16Z"/></g></g></svg>